<?xml version="1.0" standalone="no"?>
<!DOCTYPE svg PUBLIC "-//W3C//DTD SVG 20010904//EN"
 "http://www.w3.org/TR/2001/REC-SVG-20010904/DTD/svg10.dtd">
<svg version="1.0" xmlns="http://www.w3.org/2000/svg"
 width="460.000000pt" height="460.000000pt" viewBox="0 0 460.000000 460.000000"
 preserveAspectRatio="xMidYMid meet">
<metadata>
Created by potrace 1.11, written by Peter Selinger 2001-2013
</metadata>
<g transform="translate(0.000000,460.000000) scale(0.100000,-0.100000)"
fill="#000000" stroke="none">
<path d="M2205 3989 c-197 -16 -403 -96 -570 -221 -16 -12 -69 -61 -116 -109
-197 -198 -309 -474 -309 -759 0 -140 33 -307 82 -417 l20 -45 -33 -73 c-21
-45 -42 -78 -55 -84 -21 -9 -84 -90 -84 -108 0 -4 -6 -20 -14 -34 -30 -57 -39
-152 -26 -281 17 -188 44 -260 95 -260 32 0 60 28 81 84 10 24 20 47 24 51 4
5 28 -21 54 -57 49 -69 173 -179 193 -172 6 3 13 2 15 -2 5 -11 68 -56 115
-82 35 -19 40 -25 27 -34 -11 -9 -8 -11 18 -12 212 -6 335 -18 364 -35 43 -26
51 -61 23 -106 -26 -41 -71 -63 -132 -63 -45 0 -115 30 -130 55 -7 13 -14 11
-45 -12 -20 -15 -39 -31 -42 -34 -5 -7 -68 -18 -138 -23 -37 -3 -46 0 -59 21
-13 20 -21 23 -47 17 -17 -3 -37 -11 -44 -16 -6 -6 -25 -8 -42 -5 -22 5 -28 3
-24 -8 4 -8 27 -16 62 -19 32 -3 95 -10 142 -15 102 -12 482 -5 598 10 61 8
86 8 96 0 9 -7 58 -12 128 -13 62 0 154 -4 203 -10 61 -6 134 -6 225 2 74 6
164 14 200 17 55 4 62 7 47 18 -14 10 -5 13 61 19 42 3 91 8 107 10 17 2 66 7
110 11 44 4 83 9 87 12 15 8 -27 40 -62 47 -45 9 -180 26 -250 32 -30 2 -63 6
-72 8 -13 3 -18 -2 -18 -16 0 -34 -57 -78 -101 -78 -32 0 -46 7 -78 40 l-39
40 -6 -25 c-11 -44 -79 -95 -126 -95 -11 0 -20 -5 -20 -11 0 -7 -10 -9 -24 -5
-14 3 -36 2 -51 -4 -14 -5 -24 -6 -21 -1 8 12 -74 51 -108 51 -14 0 -38 -7
-52 -16 -38 -25 -123 -25 -148 0 -31 31 -26 89 10 127 35 36 127 68 152 52 37
-22 83 -25 159 -8 65 15 82 15 115 4 46 -15 89 -15 138 -2 l35 10 -27 8 c-16
4 -28 11 -28 15 0 4 25 17 55 28 155 59 314 206 421 388 9 16 13 11 29 -36 25
-76 80 -166 106 -173 15 -4 28 2 44 19 32 34 40 130 26 299 -20 247 -70 375
-153 392 -16 3 -32 13 -34 22 -3 9 -17 38 -30 64 l-26 48 21 52 c75 187 99
406 65 602 -18 107 -65 250 -105 317 -16 27 -29 51 -29 53 0 30 -211 270 -281
320 -233 164 -486 236 -754 214z m-310 -450 c106 -19 223 -92 284 -176 l24
-32 59 58 c33 32 72 65 87 72 14 8 28 16 31 19 3 3 34 18 69 33 79 34 189 45
287 28 195 -33 386 -205 450 -406 27 -85 27 -304 0 -390 -27 -86 -80 -178
-143 -246 l-55 -59 -134 0 c-74 0 -134 4 -134 8 0 5 18 16 41 26 42 19 60 46
51 79 -5 18 -50 43 -60 33 -2 -3 7 -8 22 -12 14 -3 26 -10 26 -15 0 -22 -101
-23 -295 -1 -143 16 -581 -2 -685 -28 -19 -5 -67 -10 -106 -12 -83 -4 -87 -16
-15 -50 l46 -22 -35 -6 -35 -5 66 -47 c37 -27 72 -48 78 -48 6 0 11 -4 11 -8
0 -8 92 -52 110 -52 6 0 10 -4 10 -10 0 -11 164 -90 188 -90 8 0 35 -11 59
-25 23 -14 43 -22 43 -17 0 13 82 23 96 11 7 -6 20 -2 36 10 19 16 28 17 37 8
10 -9 15 -8 26 6 7 10 29 21 49 24 20 3 47 16 61 29 15 13 30 24 35 24 5 0 13
6 17 13 8 13 33 26 151 78 28 13 52 27 52 31 0 5 9 8 20 8 20 0 63 34 54 43
-3 2 12 2 33 0 21 -2 44 -5 51 -5 6 -1 12 -5 12 -10 0 -5 4 -6 10 -3 35 22
168 -194 203 -330 22 -82 30 -145 16 -125 -8 11 -8 8 -2 -10 10 -31 10 -106 0
-116 -4 -5 -23 -7 -42 -6 -31 2 -35 0 -35 -23 0 -26 -18 -33 -37 -14 -8 8 -13
8 -17 0 -4 -6 -2 -11 3 -11 6 0 11 -4 11 -10 0 -5 -9 -10 -19 -10 -11 0 -23 5
-26 10 -11 17 -24 11 -31 -15 -7 -27 -34 -35 -34 -10 0 13 -4 14 -20 5 -11 -6
-25 -8 -30 -5 -5 3 -11 1 -15 -5 -4 -6 7 -10 26 -10 49 0 29 -9 -25 -11 -26
-1 -49 -6 -52 -11 -7 -11 -54 -10 -54 1 0 16 -51 -1 -61 -21 -10 -18 -12 -18
-27 -5 -15 14 -20 13 -42 -5 -14 -11 -26 -15 -28 -9 -4 13 -62 3 -83 -15 -17
-15 -33 -19 -26 -6 3 4 -8 7 -24 8 -15 1 -26 -3 -23 -7 3 -5 -16 -10 -43 -10
-26 -1 -38 -4 -25 -6 38 -7 24 -23 -20 -23 -82 -1 -213 -11 -240 -20 -35 -11
-68 -2 -68 19 0 11 -3 12 -8 4 -9 -14 -141 -8 -157 8 -5 5 -17 9 -27 9 -10 0
-21 7 -24 15 -10 24 -24 17 -24 -12 0 -14 -3 -23 -7 -20 -3 4 -12 2 -20 -5
-11 -8 -12 -7 -7 6 3 9 11 16 18 16 6 0 2 6 -8 12 -15 8 -21 7 -28 -6 -11 -20
-106 -23 -114 -3 -3 8 -17 11 -39 9 -25 -3 -35 0 -35 9 0 9 -3 10 -8 4 -4 -6
-20 -16 -37 -24 -16 -7 -38 -17 -47 -22 -19 -10 -26 5 -8 16 6 3 10 12 9 18 0
8 -2 8 -6 -1 -4 -10 -8 -10 -19 -1 -10 8 -14 8 -14 0 0 -6 5 -11 11 -11 5 0 7
-5 4 -10 -4 -6 -11 -8 -16 -5 -5 4 -9 1 -9 -4 0 -11 19 -15 53 -12 9 1 17 -3
17 -8 0 -6 -5 -11 -11 -11 -5 0 -7 -5 -3 -12 4 -7 3 -8 -5 -4 -6 4 -8 13 -5
19 5 9 3 9 -6 0 -8 -8 -10 -17 -4 -26 5 -7 0 -3 -11 10 -12 13 -24 23 -29 23
-16 0 -33 26 -31 49 1 12 -4 25 -12 28 -8 3 -12 12 -8 22 5 13 4 14 -7 3 -11
-11 -10 -16 4 -26 11 -8 14 -17 7 -27 -7 -11 -9 -12 -9 0 0 7 -10 22 -22 32
-11 11 -17 19 -13 19 4 0 0 9 -9 19 -10 11 -15 25 -10 32 4 7 3 10 -2 6 -6 -3
-21 22 -34 56 -61 153 -11 381 127 574 50 70 50 65 -13 131 -35 36 -92 146
-121 232 -14 43 -18 84 -17 190 1 126 3 141 33 225 32 87 62 146 88 173 7 7
13 17 13 21 0 21 121 124 184 156 100 50 179 63 281 44z m45 -1089 c52 -11
118 -26 145 -32 28 -6 84 -14 125 -17 l75 -6 -70 -11 c-53 -8 -82 -8 -122 1
-29 7 -55 10 -58 6 -3 -3 -9 -1 -13 5 -4 6 -27 16 -52 23 -109 30 -126 34
-143 33 -9 0 -15 3 -12 8 3 5 0 10 -7 13 -23 8 35 -2 132 -23z m1220 -670 c0
-5 -4 -10 -10 -10 -5 0 -10 5 -10 10 0 6 5 10 10 10 6 0 10 -4 10 -10z m-1510
-170 c0 -5 -4 -10 -10 -10 -5 0 -10 5 -10 10 0 6 5 10 10 10 6 0 10 -4 10 -10z
m860 0 c0 -5 -4 -10 -9 -10 -6 0 -13 5 -16 10 -3 6 1 10 9 10 9 0 16 -4 16
-10z m-925 -98 c-3 -3 -11 0 -18 7 -9 10 -8 11 6 5 10 -3 15 -9 12 -12z m72
-368 c-3 -3 -12 -4 -19 -1 -8 3 -5 6 6 6 11 1 17 -2 13 -5z"/>
<path d="M1848 2995 c-80 -45 -74 -180 11 -214 65 -27 137 15 156 91 8 29 -15
86 -45 113 -26 24 -89 29 -122 10z"/>
<path d="M2432 2985 c-34 -28 -53 -77 -45 -118 9 -44 56 -88 102 -94 106 -14
174 118 103 198 -23 25 -38 33 -78 36 -43 5 -54 2 -82 -22z"/>
<path d="M2070 2760 c-9 -6 -10 -10 -3 -10 6 0 15 5 18 10 8 12 4 12 -15 0z"/>
<path d="M2280 2755 c0 -8 9 -15 20 -15 11 0 20 7 20 15 0 8 -9 15 -20 15 -11
0 -20 -7 -20 -15z"/>
<path d="M3088 1803 c7 -3 16 -2 19 1 4 3 -2 6 -13 5 -11 0 -14 -3 -6 -6z"/>
<path d="M2835 1730 c-3 -5 -1 -10 4 -10 6 0 11 5 11 10 0 6 -2 10 -4 10 -3 0
-8 -4 -11 -10z"/>
<path d="M2120 1600 c0 -5 7 -10 15 -10 8 0 15 5 15 10 0 6 -7 10 -15 10 -8 0
-15 -4 -15 -10z"/>
</g>
</svg>
